# xmcd
#
# Track frame offsets:
#	150
#	13547
#	27157
#	40085
#	54680
#	65817
#	80067
#	92010
#	106995
#	121495
#	136147
#	153510
#	170255
#	184575
#	203937
#	211942
#	223065
#	234157
#
# Disc length: 3386 seconds
#
# Revision: 2
# Processed by: cddbd v1.5.2PL0 Copyright (c) Steve Scherf et al.
# Submitted via: VUPlayer 2.49
#
DISCID=f60d3812
DTITLE=Major Dundee Band - Hollands Goud
DYEAR=2003
DGENRE=Country
TTITLE0=The Longer the Distance
TTITLE1=Sand in My Boots
TTITLE2=Bayou Love
TTITLE3=Roll On Wheels
TTITLE4=I Love Rancho Grande
TTITLE5=Knowing We're in Love
TTITLE6=I Bought Me A Fiddle Today
TTITLE7=Lady Moonlight
TTITLE8=You Get Too Big for Your Boots
TTITLE9=My Letter
TTITLE10=Crazy Lovers
TTITLE11=Kaw Liga
TTITLE12=Red River Rosie
TTITLE13=Jeffrey
TTITLE14=Sweet Jennies House
TTITLE15=One Armed Bandit
TTITLE16=Until You're Here Again
TTITLE17=The Story of My Life
EXTD=
EXTT0=
EXTT1=
EXTT2=
EXTT3=
EXTT4=
EXTT5=
EXTT6=
EXTT7=
EXTT8=
EXTT9=
EXTT10=
EXTT11=
EXTT12=
EXTT13=
EXTT14=
EXTT15=
EXTT16=
EXTT17=
PLAYORDER=
